<svg width="143" height="22" viewBox="0 0 143 22" fill="none" xmlns="http://www.w3.org/2000/svg">
<g id="Group 1">
<g id="Group">
<path id="Vector" d="M82.0343 4.06237C82.0285 4.03061 82.0257 3.99906 82.0142 3.97012C82.0028 3.92973 81.9855 3.89516 81.9624 3.85778C81.9479 3.83185 81.9306 3.80593 81.9105 3.78282C81.8846 3.75107 81.8559 3.72514 81.8241 3.69922C81.7982 3.67912 81.7723 3.66184 81.7435 3.64455C81.709 3.62446 81.6716 3.6128 81.6312 3.60134C81.6111 3.59552 81.5938 3.58125 81.5707 3.57823C81.5562 3.57542 81.542 3.58105 81.5247 3.58105C81.5074 3.58105 81.4959 3.57241 81.4787 3.57241L64.2956 3.57261L63.774 0.466851C63.7682 0.440926 63.7539 0.417815 63.7453 0.394906C63.7367 0.366168 63.728 0.337228 63.7135 0.311304C63.6935 0.273924 63.6703 0.239359 63.6444 0.207605C63.6243 0.184494 63.607 0.164397 63.5839 0.144298C63.5522 0.11556 63.5176 0.0952622 63.4802 0.0751626C63.4543 0.0606928 63.4284 0.0492373 63.3996 0.0377824C63.3592 0.0233127 63.319 0.0176861 63.2758 0.0118575C63.2557 0.00904399 63.2385 0.000402329 63.2182 0.000402329L59.5647 0C59.2536 0 59 0.253623 59 0.564744C59 0.875865 59.2506 1.12949 59.5647 1.12949H62.7427L64.8343 13.5871C63.9181 13.8118 63.2614 14.6214 63.2614 15.5865V15.6844C63.3074 16.7993 64.218 17.6724 65.333 17.6724L79.3119 17.6551C79.623 17.6551 79.8766 17.4015 79.8738 17.0903C79.8738 16.7792 79.6202 16.5284 79.3091 16.5284L65.3301 16.5457C64.8203 16.5457 64.4053 16.1482 64.3852 15.6613V15.5893C64.3852 15.0996 64.7568 14.699 65.2465 14.653L69.499 14.2728C69.5135 14.2728 69.5278 14.2728 69.5422 14.27L80.087 13.3306C80.1071 13.3278 80.1244 13.3192 80.1447 13.3134C80.1879 13.3047 80.2311 13.2933 80.2685 13.276C80.2944 13.2645 80.3175 13.2501 80.3404 13.2328C80.375 13.2097 80.4037 13.1868 80.4327 13.1578C80.4528 13.1377 80.47 13.1174 80.4873 13.0915C80.5104 13.0597 80.5277 13.0252 80.545 12.9878C80.5565 12.9591 80.5681 12.9331 80.5768 12.9014C80.5796 12.8869 80.5882 12.8755 80.5912 12.8582L82.0376 4.23499C82.0404 4.22052 82.0348 4.20906 82.0376 4.19459C82.04 4.17168 82.0486 4.15721 82.0486 4.13711C82.0486 4.11119 82.0372 4.08808 82.0342 4.06215L82.0343 4.06237ZM64.7597 6.34418L64.4831 4.69903H67.3642L67.6408 6.34418H64.7597ZM64.9498 7.47064H67.8309L68.1592 9.42684H65.2782L64.9498 7.47064ZM65.9524 13.452L65.4655 10.5536H68.3465L68.7903 13.1983L65.9524 13.452ZM72.0891 12.9045L69.9168 13.0976L69.4904 10.5536H72.0891L72.0891 12.9045ZM72.0891 9.42715H69.3003L68.9719 7.47094H72.0893L72.0891 9.42715ZM72.0891 6.34429H68.7846L68.5081 4.70217H72.0893L72.0891 6.34429ZM75.4658 12.6019L73.2158 12.8037V10.5536H75.8086L75.4658 12.6019ZM75.9987 9.42699H73.2155V7.47079H76.3271L75.9987 9.42699ZM73.2157 6.34413V4.69898H76.7911L76.5146 6.34413H73.2157ZM79.5541 12.2385L76.624 12.498L76.9495 10.5532H79.8335L79.5541 12.2385ZM80.0266 9.42679H77.1397L77.4681 7.47058H80.352L80.0266 9.42679ZM80.5422 6.34393H77.6583L77.9349 4.69878H80.8188L80.5422 6.34393Z" fill="#6C758D"/>
<path id="Vector_2" d="M67.8998 18.3007C66.8799 18.3007 66.05 19.1305 66.05 20.1504C66.05 21.1703 66.8799 22.0001 67.8998 22.0001C68.9197 22.0001 69.7495 21.1703 69.7495 20.1504C69.7495 19.1305 68.9197 18.3007 67.8998 18.3007ZM67.8998 20.8765C67.4992 20.8765 67.1767 20.5509 67.1767 20.1534C67.1767 19.7528 67.5022 19.4302 67.8998 19.4302C68.2973 19.4302 68.6229 19.7558 68.6229 20.1534C68.6229 20.5509 68.3003 20.8765 67.8998 20.8765Z" fill="#6C758D"/>
<path id="Vector_3" d="M75.9581 18.3007C74.9382 18.3007 74.1084 19.1305 74.1084 20.1504C74.1084 21.1703 74.9382 22.0001 75.9581 22.0001C76.978 22.0001 77.8078 21.1703 77.8078 20.1504C77.8076 19.1305 76.978 18.3007 75.9581 18.3007ZM75.9581 20.8765C75.5576 20.8765 75.235 20.5509 75.235 20.1534C75.235 19.7528 75.5606 19.4302 75.9581 19.4302C76.3586 19.4302 76.6812 19.7558 76.6812 20.1534C76.6812 20.5509 76.3556 20.8765 75.9581 20.8765Z" fill="#6C758D"/>
</g>
<g id="Group_2">
<path id="Vector_4" d="M8.32379 0C3.73732 0 0 3.73732 0 8.32379C0 12.9103 3.73732 16.6476 8.32379 16.6476C10.2969 16.6476 12.1068 15.9521 13.5355 14.7989L20.4754 21.7388C20.8235 22.087 21.3905 22.0872 21.7389 21.7388C22.087 21.3906 22.0872 20.8237 21.7389 20.4753L14.8086 13.545C15.9602 12.1167 16.6479 10.2956 16.6479 8.32395C16.6479 3.73748 12.9105 0.000159169 8.32406 0.000159169L8.32379 0ZM8.32379 1.78378C11.9462 1.78378 14.8639 4.7014 14.8639 8.3239C14.8639 11.9464 11.9463 14.864 8.32379 14.864C4.70135 14.864 1.78367 11.9464 1.78367 8.3239C1.78367 4.70124 4.7013 1.78378 8.32379 1.78378V1.78378Z" fill="#6C758D"/>
</g>
<path id="Vector_5" d="M141.642 22C141.945 22 142.191 21.762 142.191 21.4691C142.191 17.0718 139.421 13.1119 135.342 11.5051C136.825 10.3113 137.772 8.51233 137.772 6.50335C137.772 2.91741 134.758 0 131.053 0C127.349 0 124.335 2.91755 124.335 6.50335C124.335 8.51304 125.282 10.3124 126.766 11.5065C122.794 13.0857 120.191 16.9656 120.191 21.4691C120.191 21.7622 120.436 22 120.739 22C121.042 22 121.287 21.762 121.287 21.4691C121.287 17.1397 123.935 13.4542 127.891 12.2398C128.835 12.7287 129.911 13.0071 131.053 13.0071C132.196 13.0071 133.272 12.729 134.215 12.2396C138.273 13.4822 141.094 17.2517 141.094 21.469C141.094 21.7624 141.339 22 141.642 22L141.642 22ZM125.432 6.50378C125.432 3.50309 127.954 1.0622 131.053 1.0622C134.153 1.0622 136.675 3.50314 136.675 6.50378C136.675 9.50428 134.153 11.9454 131.053 11.9454C127.954 11.9454 125.432 9.50442 125.432 6.50378Z" fill="#6C758D"/>
</g>
</svg>
